<mxfile host="app.diagrams.net" modified="2021-09-18T10:46:01.834Z" agent="5.0 (Windows NT 10.0; Win64; x64) AppleWebKit/537.36 (KHTML, like Gecko) Chrome/93.0.4577.82 Safari/537.36" etag="JUt07qf56F9vHwWnrFiH" version="15.2.9" type="github">
  <diagram id="-QZdqXWxnTydWcJqNLBI" name="Page-1">
    <mxGraphModel dx="1422" dy="1931" grid="1" gridSize="10" guides="1" tooltips="1" connect="1" arrows="1" fold="1" page="1" pageScale="1" pageWidth="827" pageHeight="1169" math="0" shadow="0">
      <root>
        <mxCell id="0" />
        <mxCell id="1" parent="0" />
        <mxCell id="owecTX8PDN2OMN6FlUlS-1" value="&lt;pre style=&quot;box-sizing: border-box ; font-family: , &amp;#34;consolas&amp;#34; , &amp;#34;liberation mono&amp;#34; , &amp;#34;menlo&amp;#34; , &amp;#34;courier&amp;#34; , monospace ; font-size: 100px ; margin-top: 0px ; margin-bottom: 1em ; overflow: auto ; background: rgb(247 , 249 , 250) ; padding: 10px 15px ; color: rgb(38 , 50 , 56) ; line-height: 1.6 ; border-radius: 3px&quot;&gt;abcabcbb&lt;/pre&gt;" style="text;html=1;strokeColor=none;fillColor=none;align=center;verticalAlign=middle;whiteSpace=wrap;rounded=0;fontSize=44;" vertex="1" parent="1">
          <mxGeometry x="310" y="50" width="260" as="geometry" />
        </mxCell>
        <mxCell id="owecTX8PDN2OMN6FlUlS-5" value="L" style="text;html=1;strokeColor=none;fillColor=none;align=center;verticalAlign=middle;whiteSpace=wrap;rounded=0;fontSize=60;" vertex="1" parent="1">
          <mxGeometry x="620" y="180" width="40" height="20" as="geometry" />
        </mxCell>
        <mxCell id="owecTX8PDN2OMN6FlUlS-6" value="R" style="text;html=1;strokeColor=none;fillColor=none;align=center;verticalAlign=middle;whiteSpace=wrap;rounded=0;fontSize=60;" vertex="1" parent="1">
          <mxGeometry x="620" y="250" width="40" height="20" as="geometry" />
        </mxCell>
      </root>
    </mxGraphModel>
  </diagram>
</mxfile>
